<svg version="1.1" viewBox="-150 20 510 100" 
width="500" height="300"
   xmlns="http://www.w3.org/2000/svg">
   <g>
      <text transform="scale(0.79927292,1.2511371)" y="68.422783" x="-166.1976" style="font-style:normal;font-weight:normal;font-size:192.141px;line-height:1.25;font-family:sans-serif;fill:#A41414;fill-opacity:1;stroke:none;stroke-width:1.00073;image-rendering:auto">
         <tspan style="font-style:normal;font-variant:normal;font-weight:normal;font-stretch:normal;font-size:192.141px;font-family:Algerian;-inkscape-font-specification:Algerian;stroke-width:1.00073" y="68.422783" x="-166.1976" id="tspan12">KRUNT</tspan>
      </text>
      <g transform="matrix(0.45311289,0,0,0.64324828,32.90922,-9.1542214)">
         <path style="fill:none;stroke:#000000;stroke-width:0.264583px;stroke-linecap:butt;stroke-linejoin:miter;stroke-opacity:1" d="M 137.58333,211.66667 C 167.06515,383.91527 9.6003508,338.4753 -52.916667,349.25 -97.989654,348.62167 -126.77796,362.69946 -239.83571,327.3169 -285.7063,312.96124 -291.7868,286.2689 -296.33333,254 -307.45378,168.96459 -240.66248,199.74017 -222.25,232.83333 -242.47814,203.25049 -288.90918,199.205 -275.16667,254 c 15.41133,53.26942 76.74158,52.16683 148.16667,-1e-5 57.172938,-39.67314 164.912901,-84.58629 264.58333,-52.91666 z" />
         <path transform="scale(0.26458333)" d="m -492.73609,1323.976 c -108.92677,-7.8222 -260.65314,-40.3819 -407.26391,-87.3966 -77.00628,-24.6942 -121.492,-51.8138 -156.0809,-95.1508 -38.6216,-48.3897 -61.6277,-131.4421 -64.503,-232.85717 -1.9673,-69.38598 6.6082,-103.71102 32.6126,-130.53772 39.4699,-40.71799 116.19095,-25.97816 190.14453,36.53103 10.62384,8.97979 18.83962,16.80336 18.25727,17.38571 -0.58234,0.58234 -7.64926,-3.37624 -15.70425,-8.79685 -23.33792,-15.70526 -44.28154,-22.61041 -72.68026,-23.9628 -22.82037,-1.08675 -26.53236,-0.49284 -40.92229,6.54751 -29.1424,14.25802 -41.1237,39.82618 -41.1237,87.75786 0,66.02964 24.5778,127.96013 66.00281,166.31243 21.5099,19.9144 40.16097,30.8391 69.71148,40.833 21.54663,7.2871 25.88769,7.7339 75.71428,7.7935 50.58214,0.061 54.38906,-0.3376 88.44983,-9.2485 82.56734,-21.6009 165.4122,-62.8352 260.63237,-129.72416 C -330.46691,857.75461 -124.958,771.67701 61.428571,738.71002 214.36783,711.659 373.36126,717.87892 498.19723,755.79667 l 19.73957,5.99571 1.46617,29.10381 c 0.8064,16.0071 3.62812,45.17524 6.27043,64.8181 6.42163,47.73785 6.68351,134.64787 0.51663,171.46251 -25.6742,153.2688 -111.40186,236.4259 -277.10417,268.7952 -51.13272,9.9886 -80.79386,11.6973 -246.2287171,14.185 -92.7142859,1.3942 -175.6428529,3.7639 -184.2857129,5.2661 -8.64286,1.5021 -28.57143,2.8535 -44.28572,3.003 -15.71428,0.1495 -59.42857,2.1369 -97.14285,4.4162 -74.38329,4.4956 -118.92403,4.7928 -169.87895,1.1337 z" style="stroke-width:2.85714" />
         <path style="stroke-width:0.755952" d="m 404.99054,349.82774 c 28.82021,-2.06962 68.96448,-10.68437 107.75525,-23.12368 20.37458,-6.53367 32.14476,-13.70907 41.29641,-25.17532 10.21863,-12.8031 16.30566,-34.77738 17.06642,-61.61012 0.52051,-18.35837 -1.74842,-27.44021 -8.62875,-34.53811 -10.44308,-10.7733 -30.74219,-6.87338 -50.30908,9.66551 -2.8109,2.3759 -4.98466,4.44589 -4.83058,4.59997 0.15408,0.15407 2.02387,-0.8933 4.1551,-2.3275 6.17482,-4.15535 11.71615,-5.98234 19.22998,-6.34016 6.03789,-0.28754 7.02002,-0.1304 10.82736,1.73236 7.71059,3.77243 10.88064,10.53735 10.88064,23.21927 0,17.47034 -6.50287,33.85612 -17.46324,44.0035 -5.69116,5.26901 -10.62592,8.15951 -18.44449,10.80372 -5.70088,1.92805 -6.84947,2.04626 -20.03275,2.06203 -13.38319,0.0161 -14.39044,-0.0893 -23.40235,-2.44699 -21.84594,-5.71524 -43.76531,-16.62515 -68.95898,-34.32285 -42.07466,-29.55603 -96.44889,-52.33073 -145.76366,-61.05325 -40.46519,-7.15725 -82.53219,-5.51156 -115.56172,4.52084 l -5.22277,1.58637 -0.3879,7.70038 c -0.21336,4.23521 -0.95996,11.95262 -1.65907,17.14979 -1.69905,12.63064 -1.76834,35.62559 -0.13669,45.36613 6.79297,40.55236 29.47509,62.55434 73.31716,71.11872 13.52886,2.64282 21.37669,3.09491 65.14801,3.75312 24.53066,0.36888 46.47217,0.99586 48.75892,1.39332 2.28676,0.39743 7.55953,0.75499 11.71727,0.79454 4.15773,0.0396 15.72381,0.56539 25.70238,1.16846 19.68057,1.18946 31.46531,1.26809 44.94713,0.29995 z" />
      </g>
   </g>
</svg>
